<?xml version="1.0" standalone="no"?>
<!DOCTYPE svg PUBLIC "-//W3C//DTD SVG 20010904//EN"
 "http://www.w3.org/TR/2001/REC-SVG-20010904/DTD/svg10.dtd">
<svg version="1.0" xmlns="http://www.w3.org/2000/svg"
 width="700.000000pt" height="700.000000pt" viewBox="0 0 700.000000 700.000000"
 preserveAspectRatio="xMidYMid meet">
<metadata>
Created by potrace 1.11, written by Peter Selinger 2001-2013
</metadata>
<g transform="translate(0.000000,700.000000) scale(0.100000,-0.100000)"
fill="#000000" stroke="none">
<path d="M3278 6995 c-2 -1 -42 -6 -90 -10 -48 -3 -98 -8 -110 -10 -13 -2 -44
-6 -69 -9 -62 -9 -134 -22 -239 -42 -101 -20 -343 -85 -385 -104 -11 -5 -51
-20 -90 -34 -142 -50 -369 -155 -525 -241 -179 -100 -468 -310 -625 -456 -167
-154 -334 -339 -457 -504 -4 -5 -18 -23 -31 -40 -13 -16 -32 -45 -42 -62 -11
-18 -23 -33 -27 -33 -4 0 -8 -5 -8 -10 0 -22 -51 -91 -62 -84 -7 4 -8 3 -4 -5
7 -11 -28 -79 -48 -93 -6 -4 -7 -8 -3 -8 5 0 0 -12 -10 -27 -11 -16 -24 -40
-31 -55 -6 -16 -15 -28 -20 -28 -5 0 -9 -6 -9 -12 0 -7 -25 -65 -55 -128 -31
-63 -61 -132 -69 -152 -7 -20 -17 -34 -22 -31 -6 3 -7 1 -3 -5 5 -9 -19 -85
-54 -167 -15 -33 -58 -178 -65 -218 -4 -22 -11 -34 -18 -30 -6 3 -7 1 -3 -5 4
-6 0 -37 -8 -69 -9 -32 -18 -76 -22 -98 -3 -22 -12 -71 -20 -110 -9 -38 -18
-90 -20 -115 -3 -25 -8 -52 -10 -60 -25 -73 -24 -667 0 -860 3 -19 7 -55 10
-79 3 -24 10 -70 16 -102 6 -33 8 -64 4 -71 -4 -7 -3 -8 4 -4 8 5 12 -1 13
-16 1 -28 2 -36 22 -113 9 -33 18 -71 21 -85 5 -26 30 -111 65 -219 11 -36 17
-69 14 -74 -3 -6 -1 -7 5 -3 7 4 13 1 13 -8 2 -23 3 -27 23 -71 10 -22 19 -44
20 -50 2 -5 15 -36 29 -69 15 -32 27 -64 27 -72 0 -7 4 -15 9 -18 5 -3 28 -44
51 -91 36 -74 40 -89 28 -103 -12 -15 -11 -16 4 -4 15 12 19 9 34 -19 41 -81
116 -203 127 -207 4 -2 7 -8 7 -14 0 -6 16 -32 36 -59 19 -27 33 -53 29 -59
-4 -6 -1 -9 5 -8 7 2 17 -5 23 -16 7 -10 24 -33 40 -50 15 -17 27 -34 27 -38
0 -3 6 -13 14 -21 34 -33 116 -137 109 -137 -4 0 4 -8 17 -17 14 -10 36 -31
50 -47 14 -17 42 -47 63 -67 20 -20 37 -42 37 -48 0 -6 3 -10 8 -8 6 2 47 -35
180 -161 18 -17 38 -32 42 -32 5 0 13 -6 17 -13 4 -7 55 -48 113 -91 58 -43
106 -83 108 -87 2 -5 8 -9 14 -9 5 0 24 -11 42 -25 18 -14 38 -25 44 -25 7 0
12 -4 12 -10 0 -5 4 -10 9 -10 15 0 111 -62 111 -71 0 -5 3 -8 8 -7 15 3 61
-25 55 -35 -3 -6 -1 -7 4 -4 14 9 86 -27 76 -37 -4 -4 -3 -6 2 -5 15 4 58 -11
77 -28 9 -8 25 -16 35 -18 10 -1 17 -8 15 -15 -1 -6 2 -9 8 -5 6 4 30 -2 53
-13 70 -32 111 -49 135 -57 12 -3 19 -11 16 -17 -4 -6 -3 -8 3 -5 14 9 115
-28 105 -38 -4 -4 -2 -5 5 -1 7 4 28 0 48 -8 38 -16 37 -16 61 -16 9 0 12 -5
8 -12 -4 -6 -3 -8 3 -5 12 8 111 -20 132 -37 12 -9 13 -8 7 2 -7 11 -4 12 12
3 11 -6 38 -14 59 -17 21 -3 41 -8 45 -11 10 -5 41 -12 88 -19 19 -2 50 -9 70
-14 19 -5 53 -11 75 -14 53 -6 124 -16 155 -22 150 -26 659 -26 850 1 88 12
107 14 135 20 46 8 99 18 110 20 42 10 94 18 117 19 14 1 24 5 20 10 -3 5 4 7
16 4 12 -3 22 -2 24 3 2 6 17 11 33 13 17 2 30 5 30 6 0 2 11 5 50 13 54 13
285 94 362 128 23 11 44 19 46 19 3 0 54 23 113 52 60 29 114 52 119 52 6 1
19 9 29 18 10 10 23 15 28 12 4 -3 8 -1 8 4 0 5 14 15 31 22 17 7 58 30 90 52
33 21 64 38 69 38 6 0 10 4 10 9 0 5 9 13 20 16 11 4 41 22 66 41 25 19 50 32
57 28 7 -4 9 -4 5 1 -4 4 34 39 85 77 196 150 379 320 520 483 33 39 63 72 67
75 4 3 44 55 90 115 233 307 410 638 532 994 34 101 91 301 104 364 17 88 44
239 48 272 3 22 8 62 12 90 3 27 8 61 10 75 9 49 11 526 4 605 -16 169 -22
220 -25 225 -2 3 -6 30 -10 60 -9 75 -69 337 -98 435 -156 511 -417 973 -763
1354 -74 81 -254 257 -314 306 -25 21 -64 54 -88 74 -188 157 -563 385 -782
475 -36 15 -83 35 -105 45 -159 71 -557 181 -745 206 -19 3 -46 7 -60 10 -13
2 -52 7 -86 11 -33 3 -74 8 -90 10 -33 5 -541 14 -546 9z"/>
<path d="M115 2440 c3 -5 8 -10 11 -10 2 0 4 5 4 10 0 6 -5 10 -11 10 -5 0 -7
-4 -4 -10z"/>
<path d="M75 2400 c3 -5 8 -10 11 -10 2 0 4 5 4 10 0 6 -5 10 -11 10 -5 0 -7
-4 -4 -10z"/>
<path d="M996 958 c3 -5 10 -6 15 -3 13 9 11 12 -6 12 -8 0 -12 -4 -9 -9z"/>
<path d="M1593 513 c0 -9 4 -10 14 -2 7 6 13 12 13 14 0 1 -6 2 -13 2 -8 0
-14 -6 -14 -14z"/>
<path d="M1945 280 c-3 -6 1 -7 9 -4 18 7 21 14 7 14 -6 0 -13 -4 -16 -10z"/>
<path d="M4880 260 c-9 -6 -10 -10 -3 -10 6 0 15 5 18 10 8 12 4 12 -15 0z"/>
</g>
</svg>
